<svg width="16" height="16" viewBox="0 0 16 16" fill="none" xmlns="http://www.w3.org/2000/svg">
<path fill-rule="evenodd" clip-rule="evenodd" d="M4.00001 4V3.33333C4.00001 2.22877 4.89544 1.33333 6.00001 1.33333H12.6667C13.7713 1.33333 14.6667 2.22877 14.6667 3.33333V10C14.6667 11.1046 13.7713 12 12.6667 12H12V12.6667C12 13.7713 11.1046 14.6667 10 14.6667H3.33334C2.22878 14.6667 1.33334 13.7713 1.33334 12.6667V6C1.33334 4.89543 2.22878 4 3.33334 4H4.00001ZM5.33334 4V3.33333C5.33334 2.96515 5.63182 2.66667 6.00001 2.66667H12.6667C13.0349 2.66667 13.3333 2.96515 13.3333 3.33333V10C13.3333 10.3682 13.0349 10.6667 12.6667 10.6667H12V6C12 4.89543 11.1046 4 10 4H5.33334Z" fill="#3F4860"/>
</svg>
