<svg width="18" height="18" viewBox="0 0 18 18" fill="none" xmlns="http://www.w3.org/2000/svg">
<path d="M9.5625 6V8.76675L10.8975 10.1025C10.9528 10.154 10.9971 10.2161 11.0278 10.2851C11.0586 10.3541 11.0751 10.4286 11.0764 10.5041C11.0778 10.5796 11.0639 10.6547 11.0356 10.7247C11.0073 10.7947 10.9652 10.8584 10.9118 10.9118C10.8584 10.9652 10.7947 11.0073 10.7247 11.0356C10.6547 11.0639 10.5796 11.0778 10.5041 11.0764C10.4286 11.0751 10.3541 11.0586 10.2851 11.0278C10.2161 10.9971 10.154 10.9528 10.1025 10.8975L8.6025 9.3975C8.55015 9.34539 8.50863 9.28344 8.48031 9.21523C8.45199 9.14701 8.43744 9.07386 8.4375 9V6C8.4375 5.85082 8.49677 5.70774 8.60226 5.60225C8.70774 5.49676 8.85082 5.4375 9 5.4375C9.14919 5.4375 9.29226 5.49676 9.39775 5.60225C9.50324 5.70774 9.5625 5.85082 9.5625 6ZM9.0195 1.6875C7.98653 1.68751 6.96545 1.90788 6.02442 2.3339C5.08339 2.75993 4.24407 3.3818 3.5625 4.158V2.25C3.5625 2.10082 3.50324 1.95774 3.39775 1.85225C3.29226 1.74676 3.14919 1.6875 3 1.6875C2.85082 1.6875 2.70774 1.74676 2.60225 1.85225C2.49677 1.95774 2.4375 2.10082 2.4375 2.25V5.25C2.4375 5.39918 2.49677 5.54226 2.60225 5.64775C2.70774 5.75324 2.85082 5.8125 3 5.8125H6C6.14919 5.8125 6.29226 5.75324 6.39775 5.64775C6.50324 5.54226 6.5625 5.39918 6.5625 5.25C6.5625 5.10082 6.50324 4.95774 6.39775 4.85225C6.29226 4.74676 6.14919 4.6875 6 4.6875H4.61475C5.32787 3.96221 6.20917 3.42438 7.18028 3.12185C8.15139 2.81932 9.18221 2.76146 10.1811 2.95342C11.1799 3.14538 12.1159 3.58121 12.9057 4.22215C13.6955 4.86309 14.3146 5.68927 14.7081 6.62723C15.1016 7.56518 15.2572 8.58584 15.161 9.59843C15.0649 10.611 14.72 11.5842 14.157 12.4313C13.5941 13.2785 12.8305 13.9733 11.9342 14.4542C11.0379 14.9351 10.0366 15.187 9.0195 15.1875C7.87014 15.1926 6.74273 14.8729 5.76717 14.2651C4.79161 13.6574 4.00761 12.7864 3.5055 11.7525C3.43986 11.6184 3.32365 11.5159 3.18244 11.4675C3.04122 11.4192 2.88657 11.4289 2.7525 11.4945C2.61844 11.5601 2.51594 11.6764 2.46755 11.8176C2.41917 11.9588 2.42886 12.1134 2.4945 12.2475C3.08877 13.4709 4.01654 14.5015 5.17094 15.2207C6.32534 15.9399 7.65942 16.3184 9.0195 16.3125C10.9589 16.3125 12.8189 15.5421 14.1902 14.1707C15.5616 12.7994 16.332 10.9394 16.332 9C16.332 7.0606 15.5616 5.20064 14.1902 3.82928C12.8189 2.45792 10.9589 1.6875 9.0195 1.6875Z" fill="#9EA7BE"/>
</svg>
