<svg width="16" height="16" viewBox="0 0 16 16" fill="none" xmlns="http://www.w3.org/2000/svg">
<path d="M8.00003 1.33334C4.32394 1.33334 1.33337 4.32422 1.33337 8C1.33337 11.6758 4.32394 14.6667 8.00003 14.6667C11.6761 14.6667 14.6667 11.6758 14.6667 8C14.6667 4.32422 11.6761 1.33334 8.00003 1.33334ZM8.00003 13.3333C5.05941 13.3333 2.66669 10.9406 2.66669 8C2.66669 5.05938 5.05941 2.66666 8.00003 2.66666C10.9407 2.66666 13.3334 5.05938 13.3334 8C13.3334 10.9406 10.9407 13.3333 8.00003 13.3333ZM11.3334 8C11.3334 8.08756 11.3162 8.17426 11.2827 8.25515C11.2492 8.33605 11.2001 8.40955 11.1382 8.47146C11.0762 8.53337 11.0027 8.58248 10.9218 8.61597C10.8409 8.64946 10.7542 8.66669 10.6667 8.66666H8.00003C7.91248 8.66668 7.82578 8.64945 7.74488 8.61596C7.66399 8.58247 7.59049 8.53336 7.52858 8.47145C7.46667 8.40954 7.41756 8.33604 7.38407 8.25515C7.35058 8.17425 7.33335 8.08755 7.33337 8V4.66666C7.33337 4.48985 7.40361 4.32028 7.52863 4.19526C7.65366 4.07024 7.82322 4 8.00003 4C8.17684 4 8.34641 4.07024 8.47143 4.19526C8.59645 4.32028 8.66669 4.48985 8.66669 4.66666V7.33334H10.6667C10.7542 7.33331 10.8409 7.35054 10.9218 7.38403C11.0027 7.41752 11.0762 7.46663 11.1382 7.52854C11.2001 7.59045 11.2492 7.66395 11.2827 7.74485C11.3162 7.82574 11.3334 7.91244 11.3334 8Z" fill="#7F8EAA"/>
</svg>
