<svg width="16" height="16" viewBox="0 0 32 32" fill="none" xmlns="http://www.w3.org/2000/svg">
<path d="M13.2608 0.811332C13.6574 0.375978 14.3426 0.375977 14.7392 0.811332L16.467 2.70774C16.7301 2.99654 17.1374 3.10566 17.5096 2.98711L19.9542 2.20868C20.5154 2.02997 21.1087 2.37253 21.2345 2.94788L21.7826 5.45412C21.8661 5.83579 22.1642 6.1339 22.5459 6.21738L25.0521 6.7655C25.6275 6.89133 25.97 7.48465 25.7913 8.04583L25.0129 10.4904C24.8943 10.8626 25.0035 11.2699 25.2923 11.533L27.1887 13.2608C27.624 13.6574 27.624 14.3426 27.1887 14.7392L25.2923 16.467C25.0035 16.7301 24.8943 17.1374 25.0129 17.5096L25.7913 19.9542C25.97 20.5154 25.6275 21.1087 25.0521 21.2345L22.5459 21.7826C22.1642 21.8661 21.8661 22.1642 21.7826 22.5459L21.2345 25.0521C21.1087 25.6275 20.5154 25.97 19.9542 25.7913L17.5096 25.0129C17.1374 24.8943 16.7301 25.0035 16.467 25.2923L14.7392 27.1887C14.3426 27.624 13.6574 27.624 13.2608 27.1887L11.533 25.2923C11.2699 25.0035 10.8626 24.8943 10.4904 25.0129L8.04583 25.7913C7.48465 25.97 6.89133 25.6275 6.7655 25.0521L6.21738 22.5459C6.1339 22.1642 5.83579 21.8661 5.45412 21.7826L2.94788 21.2345C2.37253 21.1087 2.02997 20.5154 2.20868 19.9542L2.98711 17.5096C3.10566 17.1374 2.99654 16.7301 2.70774 16.467L0.811332 14.7392C0.375978 14.3426 0.375977 13.6574 0.811332 13.2608L2.70774 11.533C2.99654 11.2699 3.10566 10.8626 2.98711 10.4904L2.20868 8.04583C2.02997 7.48465 2.37253 6.89133 2.94788 6.7655L5.45412 6.21738C5.83579 6.1339 6.1339 5.83579 6.21738 5.45412L6.7655 2.94788C6.89133 2.37253 7.48465 2.02997 8.04583 2.20868L10.4904 2.98711C10.8626 3.10566 11.2699 2.99654 11.533 2.70774L13.2608 0.811332Z" fill="url(#paint0_linear_20783_10114)"/>
<path d="M18.7504 9.88171C18.5627 9.67835 18.2456 9.66601 18.0428 9.85419L12.2962 15.1853L10.0524 12.7908C9.86354 12.5893 9.54712 12.579 9.34562 12.7678L8.36485 13.6869C8.16335 13.8757 8.15307 14.1921 8.34188 14.3936L11.8373 18.1239C12.0254 18.3246 12.3403 18.3357 12.5421 18.1487L19.6341 11.5754C19.8363 11.388 19.8487 11.0723 19.6618 10.8697L18.7504 9.88171Z" fill="#2B344D"/>
<defs>
<linearGradient id="paint0_linear_20783_10114" x1="3.34637" y1="-0.341467" x2="16.0488" y2="34.8975" gradientUnits="userSpaceOnUse">
<stop stop-color="#8EA1CF"/>
<stop offset="1" stop-color="#D3E0FF"/>
</linearGradient>
</defs>
</svg>
